# xmcd CD database file
# Copyright (C) 1997 Ti Kan
# 
# Track frame offsets:
#     150
#     16805
#     34902
#     48730
#     67825
#     83585
#     94917
#     105095
#     121605
#     135567
#     151025
#     178525
#     193537
#     213537
#     237870
#     273550
# 
# Disc length: 3876 seconds
# 
# Revision: 1
# Processed by: cddbd v1.4b41PL1 Copyright (c) Steve Scherf et al.
# Submitted via: DiscPlay 4.0.3
# 
DISCID=c50f2210
DTITLE=V rios - Grandes Cantos Sertanejos - Caipiras e Sertanezes
DYEAR=1900
DGENRE=
TTITLE0=Viol ro
TTITLE1=Ai que Saudade De Oc 
TTITLE2=O Violeiro Toca
TTITLE3=Sabor Colorido - Mo a Bonita
TTITLE4=De Papo Pro A
TTITLE5=Pau de Arara
TTITLE6=Cheirinho de Mulher
TTITLE7=Trabalhadores do Metro
TTITLE8=Forro da Penha
TTITLE9=Vide Vida marvada
TTITLE10=Riacho Seco
TTITLE11=Chalana
TTITLE12=Na Quadra das Aguas Perdidas
TTITLE13=Suite Correnteza
TTITLE14=Saga da Amazonia
TTITLE15=Rio de Lagrimas
EXTD=
EXTT0=
EXTT1=
EXTT2=
EXTT3=
EXTT4=
EXTT5=
EXTT6=
EXTT7=
EXTT8=
EXTT9=
EXTT10=
EXTT11=
EXTT12=
EXTT13=
EXTT14=
EXTT15=
PLAYORDER=
